<?xml version="1.0" encoding="UTF-8" standalone="no"?>
<svg
   width="24"
   height="24"
   version="1.1"
   id="svg1"
   sodipodi:docname="icon-pinterest.svg"
   inkscape:version="1.3.2 (091e20e, 2023-11-25, custom)"
   xmlns:inkscape="http://www.inkscape.org/namespaces/inkscape"
   xmlns:sodipodi="http://sodipodi.sourceforge.net/DTD/sodipodi-0.dtd"
   xmlns="http://www.w3.org/2000/svg"
   xmlns:svg="http://www.w3.org/2000/svg">
  <defs
     id="defs1" />
  <sodipodi:namedview
     id="namedview1"
     pagecolor="#ffffff"
     bordercolor="#000000"
     borderopacity="0.25"
     inkscape:showpageshadow="2"
     inkscape:pageopacity="0.0"
     inkscape:pagecheckerboard="0"
     inkscape:deskcolor="#d1d1d1"
     inkscape:zoom="33.875"
     inkscape:cx="12.01476"
     inkscape:cy="12"
     inkscape:window-width="1920"
     inkscape:window-height="1009"
     inkscape:window-x="-8"
     inkscape:window-y="-8"
     inkscape:window-maximized="1"
     inkscape:current-layer="svg1" />
  <g
     class="layer"
     id="g1"
     style="fill:#837d87;fill-opacity:1">
    <title
       id="title1">Layer 1</title>
    <path
       d="m12,0c-6.63,0 -12,5.37 -12,12c0,5.08 3.16,9.43 7.63,11.17c-0.11,-0.95 -0.2,-2.4 0.04,-3.44c0.22,-0.93 1.41,-5.96 1.41,-5.96s-0.36,-0.72 -0.36,-1.78c0,-1.67 0.96,-2.92 2.17,-2.92c1.02,0 1.52,0.77 1.52,1.69c0,1.03 -0.66,2.57 -1,4c-0.28,1.19 0.6,2.17 1.78,2.17c2.13,0 3.77,-2.25 3.77,-5.5c0,-2.87 -2.06,-4.88 -5.01,-4.88c-3.42,0 -5.42,2.56 -5.42,5.21c0,1.03 0.4,2.13 0.89,2.73a0.36,0.36 0 0 1 0.09,0.35l-0.34,1.36c-0.05,0.22 -0.17,0.27 -0.4,0.16c-1.5,-0.7 -2.43,-2.89 -2.43,-4.65c0,-3.78 2.75,-7.26 7.92,-7.26c4.17,0 7.4,2.97 7.4,6.93c0,4.14 -2.6,7.46 -6.22,7.46c-1.22,0 -2.36,-0.63 -2.75,-1.37l-0.75,2.85c-0.27,1.04 -1,2.35 -1.49,3.15c1.12,0.34 2.31,0.53 3.55,0.53c6.63,0 12,-5.37 12,-12c0,-6.63 -5.37,-12 -12,-12z"
       fill="#2c2540"
       id="svg_1"
       style="fill:#837d87;fill-opacity:1" />
  </g>
</svg>
