<?xml version="1.0"?>
<svg width="24" height="24" xmlns="http://www.w3.org/2000/svg" xmlns:svg="http://www.w3.org/2000/svg">

 <g class="layer">
  <title>Layer 1</title>
  <path d="m12,2.16c3.2,0 3.58,0.01 4.85,0.07c3.25,0.15 4.77,1.69 4.92,4.92c0.06,1.27 0.07,1.65 0.07,4.85c0,3.21 -0.01,3.59 -0.07,4.85c-0.15,3.23 -1.66,4.77 -4.92,4.92c-1.27,0.06 -1.64,0.07 -4.85,0.07c-3.2,0 -3.58,-0.01 -4.85,-0.07c-3.26,-0.15 -4.77,-1.7 -4.92,-4.92c-0.06,-1.27 -0.07,-1.64 -0.07,-4.85c0,-3.2 0.02,-3.58 0.07,-4.85c0.15,-3.23 1.67,-4.77 4.92,-4.92c1.27,-0.05 1.65,-0.07 4.85,-0.07zm0,-2.16c-3.26,0 -3.67,0.01 -4.95,0.07c-4.36,0.2 -6.78,2.62 -6.98,6.98c-0.06,1.28 -0.07,1.69 -0.07,4.95c0,3.26 0.01,3.67 0.07,4.95c0.2,4.36 2.62,6.78 6.98,6.98c1.28,0.06 1.69,0.07 4.95,0.07c3.26,0 3.67,-0.01 4.95,-0.07c4.35,-0.2 6.78,-2.62 6.98,-6.98c0.06,-1.28 0.07,-1.69 0.07,-4.95c0,-3.26 -0.01,-3.67 -0.07,-4.95c-0.2,-4.35 -2.62,-6.78 -6.98,-6.98c-1.28,-0.06 -1.69,-0.07 -4.95,-0.07zm0,5.84a6.16,6.16 0 1 0 0,12.32a6.16,6.16 0 0 0 0,-12.32zm0,10.16a4,4 0 1 1 0,-8a4,4 0 0 1 0,8zm6.41,-11.85a1.44,1.44 0 1 0 0,2.89a1.44,1.44 0 0 0 0,-2.89z" fill="#2c2540" id="svg_1"/>
 </g>
</svg>